{"title":"Ruben Lenten The Mega Loop King!.mp4","uid":7356430,"size":15346959,"categoryP":"video","categoryS":"hd___movies","magnet":"?xt=urn:btih:a61e0266f85e79bbcfbc1fbef3728dfadbfaf9bf&amp;dn=Ruben+Lenten+The+Mega+Loop+King%21.mp4&amp;tr=udp%3A%2F%2Ftracker.openbittorrent.com%3A80&amp;tr=udp%3A%2F%2Fopen.demonii.com%3A1337&amp;tr=udp%3A%2F%2Ftracker.coppersurfer.tk%3A6969&amp;tr=udp%3A%2F%2Fexodus.desync.com%3A6969","seeders":0,"leechers":1,"uploader":"JohnLucio","files":-1,"time":1339788007,"description":"Enjoy the ambassador of the sport, the spectacular Ruben Lenten (Len10) performing...\nAwsome kiteboarding action !\n\nGeneral\nComplete name : H:MoviesKiteBoarding VideosRuben Lenten The Mega Loop King! on Vimeo.mp4\nFormat : MPEG-4\nFormat profile : Base Media\nCodec ID : isom\nFile size : 14.6 MiB\nDuration : 2mn 22s\nOverall bit rate : 864 Kbps\nEncoded date : UTC 2009-12-03 19:06:31\nTagged date : UTC 2009-12-04 19:06:31\nVideo\nID : 1\nFormat : AVC\nFormat/Info : Advanced Video Codec\nFormat profile : &lt;a class=&quot;__cf_email__&quot; href=&quot;/cdn-cgi/l/email-protection&quot; data-cfemail=&quot;c38baaa4ab838ff0edf2&quot;&gt;[email&amp;#160;protected]&lt;/a&gt;&lt;script cf-hash='f9e31' type=&quot;text/javascript&quot;&gt;\n/* &lt;![CDATA[ */!function(){try{var t=&quot;currentScript&quot;in document?document.currentScript:function(){for(var t=document.getElementsByTagName(&quot;script&quot;),e=t.length;e--;)if(t[e].getAttribute(&quot;cf-hash&quot;))return t[e]}();if(t&amp;&amp;t.previousSibling){var e,r,n,i,c=t.previousSibling,a=c.getAttribute(&quot;data-cfemail&quot;);if(a){for(e=&quot;&quot;,r=parseInt(a.substr(0,2),16),n=2;a.length-n;n+=2)i=parseInt(a.substr(n,2),16)^r,e+=String.fromCharCode(i);e=document.createTextNode(e),c.parentNode.replaceChild(e,c)}}}catch(u){}}();/* ]]&gt; */&lt;/script&gt;\nFormat settings, CABAC : Yes\nFormat settings, ReFrames : 4 frames\nCodec ID : avc1\nCodec ID/Info : Advanced Video Coding\nDuration : 2mn 22s\nBit rate mode : Variable\nBit rate : 750 Kbps\nMaximum bit rate : 1 463 Kbps\nWidth : 640 pixels\nHeight : 360 pixels\nDisplay aspect ratio : 16:9\nFrame rate mode : Constant\nFrame rate : 29.970 fps\nColor space : YUV\nChroma subsampling : 4:2:0\nBit depth : 8 bits\nScan type : Progressive\nBits/(Pixel*Frame) : 0.109\nStream size : 12.7 MiB (87%)\nWriting library : x264 core 72 r1217 5e9ae4c\nEncoding settings : cabac=1 / ref=4 / deblock=1:0:0 / analyse=0x3:0x113 / me=hex / subme=7 / psy=1 / psy_rd=1.0:0.0 / mixed_ref=1 / me_range=16 / chroma_me=1 / trellis=1 / 8x8dct=1 / cqm=0 / deadzone=21,11 / chroma_qp_offset=-2 / threads=8 / nr=0 / decimate=1 / mbaff=0 / bframes=4 / b_pyramid=0 / b_adapt=1 / b_bias=0 / direct=3 / wpredb=1 / keyint=90 / keyint_min=30 / scenecut=40 / rc_lookahead=40 / rc=2pass / mbtree=1 / bitrate=750 / ratetol=1.0 / qcomp=0.60 / qpmin=10 / qpmax=51 / qpstep=4 / cplxblur=20.0 / qblur=0.5 / vbv_maxrate=1125 / vbv_bufsize=3750 / ip_ratio=1.40 / aq=1:1.00\nEncoded date : UTC 2009-12-03 19:06:31\nTagged date : UTC 2009-12-03 19:06:31\nAudio\nID : 2\nFormat : AAC\nFormat/Info : Advanced Audio Codec\nFormat version : Version 4\nFormat profile : LC\nFormat settings, SBR : No\nCodec ID : 40\nDuration : 2mn 22s\nBit rate mode : Variable\nBit rate : 112 Kbps\nMaximum bit rate : 144 Kbps\nChannel(s) : 2 channels\nChannel positions : Front: L R\nSampling rate : 44.1 KHz\nStream size : 1.90 MiB (13%)\nEncoded date : UTC 2009-12-03 19:06:31\nTagged date : UTC 2009-12-03 19:06:31\n\nEnjoy and don't forget to Comment and Seed !","torrent":{"xt":"urn:btih:a61e0266f85e79bbcfbc1fbef3728dfadbfaf9bf","amp;dn":"Ruben+Lenten+The+Mega+Loop+King%21.mp4","amp;tr":["udp%3A%2F%2Ftracker.openbittorrent.com%3A80","udp%3A%2F%2Fopen.demonii.com%3A1337","udp%3A%2F%2Ftracker.coppersurfer.tk%3A6969","udp%3A%2F%2Fexodus.desync.com%3A6969"],"infoHash":"a61e0266f85e79bbcfbc1fbef3728dfadbfaf9bf","infoHashBuffer":{"type":"Buffer","data":[166,30,2,102,248,94,121,187,207,188,31,190,243,114,141,250,219,250,249,191]},"announce":[],"urlList":[]}}